<svg width="50" height="50" viewBox="0 0 50 50" fill="none" xmlns="http://www.w3.org/2000/svg">
<rect width="50" height="50" rx="6.81818" fill="#EA1B15"/>
<path d="M34.3751 12.4995H37.0602C37.3037 12.4995 37.5001 12.6959 37.5001 12.9395V19.8642C37.5001 20.1078 37.3116 20.3042 37.0681 20.312H34.8149C34.5714 20.312 34.3751 20.1156 34.3751 19.8721V17.8462L17.0044 34.3746H21.4352C21.6787 34.3746 21.875 34.571 21.875 34.8145V37.0596C21.875 37.3032 21.6787 37.4996 21.4352 37.4996H12.9398C12.6964 37.4996 12.5 37.3032 12.5 37.0596V34.3746L32.19 15.6245H30.1274C29.8839 15.6245 29.6875 15.4281 29.6875 15.1845V12.9473C29.6875 12.7038 29.8839 12.5074 30.1274 12.5074L34.3751 12.4995ZM18.75 15.6245L26.1227 15.6167C26.3662 15.6167 26.5625 15.4202 26.5625 15.1767V12.9395C26.5625 12.6959 26.3662 12.4995 26.1306 12.4995H12.9555C12.7121 12.4995 12.5157 12.6959 12.5157 12.9395V19.8721C12.5157 20.1156 12.7121 20.312 12.9555 20.312H15.193C15.4365 20.312 15.625 20.1156 15.625 19.8721V15.6245H18.75ZM34.3751 34.3746H25.4399C25.1964 34.3746 25 34.571 25 34.8145V37.0596C25 37.3032 25.1964 37.4996 25.4399 37.4996H37.0602C37.3037 37.4996 37.5001 37.3032 37.5001 37.0596V30.0904C37.5001 29.8469 37.3037 29.6504 37.0602 29.6504H34.8149C34.5714 29.6504 34.3751 29.8469 34.3751 30.0904V34.3746Z" fill="white"/>
</svg>
